PathFileType	4	(X/Y/Z)	55_2_93_p0_0-257_filt_butterworth.trc
DataRate	CameraRate	NumFrames	NumMarkers	Units	OrigDataRate	OrigDataStartFrame	OrigNumFrames
48.0	48.0	6	27	m	48.0	0	257
Frame#	Time	RHip			RKnee			RAnkle			RBigToe			RSmallToe			RHeel			LHip			LKnee			LAnkle			LBigToe			LSmallToe			LHeel			Neck			Head			Nose			RShoulder			RElbow			RWrist			RThumb			RIndex			RPinky			LShoulder			LElbow			LWrist			LThumb			LIndex			LPinky			
		X1	Y1	Z1	X2	Y2	Z2	X3	Y3	Z3	X4	Y4	Z4	X5	Y5	Z5	X6	Y6	Z6	X7	Y7	Z7	X8	Y8	Z8	X9	Y9	Z9	X10	Y10	Z10	X11	Y11	Z11	X12	Y12	Z12	X13	Y13	Z13	X14	Y14	Z14	X15	Y15	Z15	X16	Y16	Z16	X17	Y17	Z17	X18	Y18	Z18	X19	Y19	Z19	X20	Y20	Z20	X21	Y21	Z21	X22	Y22	Z22	X23	Y23	Z23	X24	Y24	Z24	X25	Y25	Z25	X26	Y26	Z26	X27	Y27	Z27	
0	0.0	0.3149589654229513	0.5675674445875792	0.7804385881206246	0.32661746794625074	0.5860801202152474	1.2004360953004207	0.3111830010065188	0.6160391248992247	1.635495704373332	0.28661395465866146	0.42085611432973496	1.630432051478185	0.3474129330759133	0.4457313271577411	1.6497313951132007	0.29759014285714047	0.6674721187190615	1.690314650852235	0.11481598994527158	0.5943051332392018	0.7891497431380408	0.1279198782640413	0.6082077145484655	1.1984350283542895	0.13501421641679057	0.6106339286328857	1.60252387541577	0.12068146597932956	0.3914669374516897	1.6051717716514853	0.0717377962614668	0.4639886673362614	1.6483349961580667	0.1569375724406149	0.6584793309134098	1.6726258104071805	0.22724767066916501	0.5833119433534487	0.21642095175115897	0.21931485880192944	0.5430717036642139	-0.04007058109549175	0.19887015131525643	0.45738885910702043	0.08083822459493974	0.37775967088288476	0.5479938042536352	0.29750568034883695	0.38930963189839063	0.5151266752911337	0.5709823168554736	0.28131493711453404	0.39803886989607284	0.7606689816778212	0.18782007571123724	0.43877220369420256	0.8442649156866318	0.19371040318148877	0.43869834092903326	0.8663751722101642	0.21505259913955824	0.3972020644051685	0.8813070570070874	0.07646348829723189	0.612570933557816	0.30896130635456476	0.03979727479943336	0.5176167441111478	0.5490209286301797	0.1443841216266325	0.42716619831620417	0.7523657957535472	0.21449708860964734	0.4022527880918465	0.8176886633371276	0.21666823671243177	0.3990364570925169	0.8654139983632926	0.19562046807423378	0.4012585092315809	0.8598261849644908
1	0.0208333333333333	0.3186803863550721	0.5635137734877838	0.777764850859292	0.326667686246826	0.5861621518041819	1.2004544709490947	0.3118459901976831	0.6157454072364668	1.6318086620301422	0.2879999152068009	0.4241197078205441	1.6331085496833004	0.3455501678162388	0.4327113551248131	1.6406519893938691	0.29740643246329435	0.6667643554852547	1.6899455008511852	0.11443343796866312	0.5938991394168643	0.7876435585358116	0.12569406251584772	0.6034725656063461	1.1990485510491606	0.13509413216628682	0.6105218802437122	1.6024467020674538	0.12043074691708602	0.39161306736137635	1.6051538699399177	0.07228963300204126	0.46456968559481726	1.6441847757808028	0.1575080070220116	0.6584133935928244	1.6704332895511111	0.22706179437962257	0.5839752282571339	0.21660849951267916	0.22216098785494878	0.5442031836801609	-0.0401308766637513	0.1989675740191781	0.4575877728163703	0.08085145533042817	0.3761342402362354	0.5572816052823018	0.2994907134570131	0.3845868243006889	0.5169632107430394	0.5729939655056815	0.2813196049524799	0.3983030583663302	0.7603902756282579	0.18660723255104283	0.4352829744336757	0.8435624073177654	0.19279746942535644	0.4345138207031682	0.8649832225373536	0.21519486270936422	0.3974402574853078	0.8816054112354953	0.07625868483242856	0.6117035848509028	0.3062441009470375	0.03943695122213063	0.5172567519054321	0.5457715178778294	0.14454189336272275	0.42676793473997726	0.7492831355389127	0.20950208876389287	0.3936640126451867	0.8139042706537059	0.21113233423576633	0.38995547071555825	0.8581937137966945	0.1951484746373597	0.4000009959828589	0.8560423179647721
2	0.0416666666666666	0.32131091617987595	0.5598188124173273	0.7767392709366936	0.3267239158980653	0.5861753381383101	1.2004912506973255	0.3121715128074829	0.6155628773324613	1.62998819794755	0.2888081878411118	0.42558372521522525	1.6357936786527265	0.3447848053902863	0.42648879353774194	1.6362041126197138	0.2972539936228548	0.6658584998954535	1.6887830201967988	0.11391760854008379	0.5934667687378826	0.7861128256290562	0.1258762402221386	0.6041065617277294	1.200763134348069	0.13513015601855122	0.6104307244983695	1.6024523247480982	0.12029643063766789	0.3914093747048643	1.6051563179795756	0.07247305223195323	0.46527786349041106	1.6413708806978071	0.1579793006896016	0.6582484792020062	1.6679893162226493	0.22723797863165968	0.5831872278347564	0.2165090915857399	0.22353556221592513	0.5447492067020812	-0.04008168997740355	0.2000006580627516	0.460154145685224	0.08113249700308907	0.37523375654272006	0.5617589955642089	0.30043962228354404	0.3825210388123929	0.5182148489413726	0.5731534455210204	0.2812141953408209	0.3985604210122865	0.7599125948241701	0.1866029367395283	0.4348163194827589	0.8433577256024238	0.19216076923763611	0.43490119253744913	0.8641806030565693	0.21345038248343318	0.3974744756465158	0.882441474483393	0.07617886084135266	0.6114187499104317	0.30497445916996685	0.03933948127060148	0.5170995100976257	0.544441391894184	0.14308600673383015	0.42759758741475207	0.748531057443568	0.20585775094448433	0.38935625859097617	0.8112107105196978	0.2074604854091927	0.38540931124362765	0.8550164123990087	0.19495175846464363	0.3994337855428423	0.8537527451121227
3	0.0625	0.3223413329322966	0.5583163791552096	0.7764445743293903	0.32679695370098494	0.5862197037582291	1.200578714517937	0.31221574754734704	0.6155031808862939	1.6298876680821561	0.28857703299385307	0.42428649177737415	1.6370371668957953	0.3443441881685481	0.42614632870587904	1.6367210948740722	0.2979578985419588	0.6665745122692658	1.687616546936348	0.11469044213038569	0.5934506120305982	0.7843042306538892	0.12810237053473314	0.6076649896425951	1.202605468417895	0.13513254163839722	0.6105692586797713	1.602220988217509	0.12031592006538125	0.391000613160038	1.6050743418638185	0.07237331620938692	0.46573295401928794	1.6403992235908462	0.1581934592660021	0.6581026283925389	1.6663137223563074	0.22816160762933957	0.5794131214055992	0.21586212423996695	0.22362191049051164	0.54476755601418	-0.039948741218944914	0.20164810645326142	0.4642620251811199	0.08158228265963766	0.3747035790172304	0.5619236525060274	0.30014992326233697	0.382638052356999	0.5187178184636813	0.5722140910394345	0.28087456517460047	0.3985551850732113	0.760281385043593	0.18820037473662787	0.4389115102898451	0.8441510061096347	0.19105332016545315	0.44143597937400636	0.8656989021935444	0.20925723710447436	0.3971200267141858	0.8829585958054532	0.07627316302772644	0.6115206038750247	0.3046650047867118	0.03989013475197195	0.5172667170309598	0.5447325498697289	0.13856910767869487	0.4293499176871722	0.7504057454764663	0.20189570621982322	0.3890919556053608	0.810572444477387	0.20398000183309045	0.3860254897109808	0.8566006525691836	0.19461511512357574	0.40041784675741887	0.8533819399794386
4	0.0833333333333333	0.3220625521837005	0.5597929778173204	0.7749343014533564	0.3268694261439069	0.5864992112668705	1.2007004614812824	0.31218323429923617	0.6155032467070043	1.630310501834321	0.28789101184617916	0.42213181521693566	1.6365119923983351	0.3430765470539217	0.42822772451292535	1.6402772105342347	0.30021953172306415	0.6710212998752045	1.6886080382201452	0.11822228310644708	0.5943081788673332	0.780855925610554	0.1304814226937194	0.6099061076948107	1.203512606395716	0.1351131245541321	0.6111466577483483	1.6012374101125808	0.12048791263609145	0.39203314161887504	1.6048936375492897	0.07225995995605754	0.4657585433340411	1.6405645586553406	0.15816696723953905	0.6581282356578624	1.6660890537753814	0.22952692297303784	0.573896809568833	0.21490687936856273	0.22339403146096157	0.544647824029197	-0.04011086252307204	0.20276248603273261	0.4670309616562527	0.08186822088680512	0.3738249554196906	0.5608956999829019	0.2992058363885365	0.38272607354933924	0.5187308047064721	0.5716326812981081	0.2810479579238982	0.3982871299408919	0.762460177060161	0.18986357694075515	0.44196655908321436	0.8456954447156502	0.18855052785537155	0.44683796231350825	0.8697005381210756	0.20404894130864537	0.39707594678579805	0.8828300709371248	0.07645571979169491	0.6108550082613464	0.30403057293669444	0.04130879907616648	0.5177230315170931	0.5452374447134272	0.13305566331613214	0.4295123738356348	0.7528846448569402	0.19718688372264565	0.3902101277078468	0.8121620960780194	0.19994716874880872	0.3898542037103839	0.8611355188350786	0.19359986690341885	0.4025892395793938	0.8558235793662539
5	0.1041666666666666	0.32090679377068143	0.5618112019226195	0.7709676839254048	0.3268848106275231	0.5870075185574777	1.2007783344936502	0.31213729633503	0.6156009539776199	1.6304985535739758	0.2875879491514354	0.42125700763764096	1.6357140489090258	0.34213240904382486	0.431244868521981	1.6440958638776155	0.30306045418641353	0.677507186478477	1.6918865783567616	0.12242864188345645	0.5945861092061587	0.7751024066273815	0.1317288574523936	0.6103235256916294	1.2036535398566388	0.13505179146120466	0.611946925464403	1.5997740085707735	0.12069303715453963	0.3962657873851017	1.6051713748306835	0.07230787468140946	0.4656256187787401	1.640524123015501	0.15815899617241083	0.6583924948092811	1.6669442607323337	0.2304497073354474	0.5701999381057613	0.21426454629982566	0.223297194822482	0.5446173131716671	-0.041042817874599624	0.20291154653677787	0.46749854840793753	0.08189235106632245	0.37255434446139535	0.560358860810221	0.2989340368500945	0.3814790237412593	0.5184886051969653	0.5716278699513878	0.28394771462257173	0.39831649866158547	0.7666183982259841	0.1901593743519216	0.4341314625827476	0.8490061868266163	0.18618810688619514	0.44139252520374916	0.8750564474877264	0.20161715989895568	0.3999381146090007	0.8844984752545424	0.07656582034128892	0.6087370977098905	0.3031482731049548	0.043041665301299874	0.518228162538431	0.545392836638728	0.12985620205661513	0.4267816154108873	0.7549678965972004	0.1945096026179495	0.3906999013633643	0.8154073554055299	0.1977607391076269	0.3929755639368563	0.8667435792627519	0.19212110486201187	0.4038240994870578	0.8628793334228977
